<?xml version="1.0" encoding="UTF-8" standalone="no"?>
<!DOCTYPE svg PUBLIC "-//W3C//DTD SVG 1.1//EN"
 "http://www.w3.org/Graphics/SVG/1.1/DTD/svg11.dtd">
<!-- Generated by graphviz version 2.30.1 (20130214.1330)
 -->
<!-- Title: G Pages: 1 -->
<svg width="172pt" height="150pt"
 viewBox="0.00 0.00 172.00 150.00" xmlns="http://www.w3.org/2000/svg" xmlns:xlink="http://www.w3.org/1999/xlink">
<g id="graph0" class="graph" transform="scale(1 1) rotate(0) translate(4 146)">
<title>G</title>
<polygon fill="white" stroke="white" points="-4,5 -4,-146 169,-146 169,5 -4,5"/>
<g id="clust1" class="cluster"><title>cluster_global</title>
<path fill="none" stroke="gray" d="M20,-8C20,-8 144,-8 144,-8 150,-8 156,-14 156,-20 156,-20 156,-122 156,-122 156,-128 150,-134 144,-134 144,-134 20,-134 20,-134 14,-134 8,-128 8,-122 8,-122 8,-20 8,-20 8,-14 14,-8 20,-8"/>
<text text-anchor="middle" x="82" y="-121.2" font-family="Times New Roman,serif" font-size="11.00" fill="gray">global</text>
</g>
<!-- \\RescueTimeRequest -->
<g id="node1" class="node"><title>\\RescueTimeRequest</title>
<g id="a_node1"><a xlink:href="rescuetime.html" xlink:title="RescueTimeRequest" target="_parent">
<polygon fill="none" stroke="black" points="147.5,-106 16.5,-106 16.5,-70 147.5,-70 147.5,-106"/>
<text text-anchor="middle" x="82" y="-85.2" font-family="Courier,monospace" font-size="11.00">RescueTimeRequest</text>
</a>
</g>
</g>
<!-- \\RescueTimeResult -->
<g id="node2" class="node"><title>\\RescueTimeResult</title>
<g id="a_node2"><a xlink:href="rescuetime.html" xlink:title="RescueTimeResult" target="_parent">
<polygon fill="none" stroke="black" points="144.5,-52 19.5,-52 19.5,-16 144.5,-16 144.5,-52"/>
<text text-anchor="middle" x="82" y="-31.2" font-family="Courier,monospace" font-size="11.00">RescueTimeResult</text>
</a>
</g>
</g>
</g>
</svg>
